<?xml version="1.0" standalone="no"?>
<!DOCTYPE svg PUBLIC "-//W3C//DTD SVG 20010904//EN"
 "http://www.w3.org/TR/2001/REC-SVG-20010904/DTD/svg10.dtd">
<svg version="1.0" xmlns="http://www.w3.org/2000/svg"
 width="260.000000pt" height="260.000000pt" viewBox="0 0 260.000000 260.000000"
 preserveAspectRatio="xMidYMid meet">
<metadata>
Created by potrace 1.11, written by Peter Selinger 2001-2013
</metadata>
<g transform="translate(0.000000,260.000000) scale(0.100000,-0.100000)"
fill="#000000" stroke="none">
<path d="M1915 2415 c-314 -67 -491 -170 -610 -354 -25 -38 -45 -76 -45 -85 0
-8 -4 -17 -9 -20 -5 -3 -12 -23 -16 -43 -5 -21 -10 -45 -12 -53 -10 -37 -10
-125 1 -158 6 -21 19 -44 30 -53 19 -15 13 -15 -79 -3 -370 50 -688 212 -932
475 -65 71 -70 71 -90 14 -6 -16 -14 -39 -19 -50 -15 -41 -16 -52 -20 -147 -5
-158 38 -270 151 -386 l71 -72 -36 5 c-64 10 -78 13 -138 38 l-60 24 4 -54
c18 -204 158 -382 358 -455 58 -22 60 -23 31 -29 -16 -3 -69 -5 -117 -4 l-87
2 15 -36 c73 -176 235 -300 424 -326 25 -4 46 -8 48 -10 6 -5 -83 -63 -159
-103 -149 -78 -334 -121 -512 -118 -113 2 -113 0 16 -65 129 -65 309 -128 414
-144 21 -3 50 -8 63 -11 14 -3 104 -7 200 -9 264 -4 471 39 686 141 389 185
694 567 803 1009 32 126 42 203 45 333 l2 94 50 41 c63 54 107 99 161 165 41
50 59 87 31 64 -19 -14 -164 -58 -223 -67 l-50 -7 38 30 c78 63 135 137 172
225 l15 38 -60 -31 c-70 -35 -153 -67 -222 -86 l-49 -12 -67 50 c-37 28 -68
54 -70 58 -5 14 54 49 145 88 113 48 128 56 118 72 -31 50 -236 62 -410 25z"/>
</g>
</svg>
