<?xml version="1.0" encoding="utf-8"?>
<!-- Generator: Adobe Illustrator 19.0.0, SVG Export Plug-In . SVG Version: 6.00 Build 0)  -->
<svg version="1.1" id="Layer_1" xmlns="http://www.w3.org/2000/svg" xmlns:xlink="http://www.w3.org/1999/xlink" x="0px" y="0px"
	 viewBox="-605 96.9 1200 600" style="enable-background:new -605 96.9 1200 600;" xml:space="preserve">
<style type="text/css">
	.st0{fill:#EF8C20;}
	.st1{fill:#EFE920;}
	.st2{fill:none;stroke:#020202;stroke-width:3;stroke-miterlimit:10;}
</style>
<g id="svg3626" xmlns:dc="http://purl.org/dc/elements/1.1/" xmlns:cc="http://creativecommons.org/ns#" xmlns:rdf="http://www.w3.org/1999/02/22-rdf-syntax-ns#" xmlns:svg="http://www.w3.org/2000/svg">
	<g id="layer1" transform="translate(-539.17946,-568.85777)">
		<path id="path3611" class="st0" d="M400.1,1233.7c242.7,0,375.3-201,375.3-375.3c0-5.7-0.1-11.4-0.4-17.1
			c25.8-18.6,48.1-41.9,65.8-68.3c-23.6,10.5-49.1,17.6-75.8,20.8c27.2-16.3,48.1-42.2,58-73c-25.5,15.1-53.7,26.1-83.8,32
			c-24.1-25.6-58.3-41.7-96.3-41.7c-72.9,0-131.9,59.1-131.9,131.9c0,10.4,1.2,20.4,3.4,30.1c-109.6-5.5-206.9-58-271.9-137.8
			c-11.3,19.5-17.9,42.1-17.9,66.3c0,45.8,23.3,86.2,58.7,109.8c-21.6-0.7-42-6.6-59.7-16.5c0,0.6,0,1.1,0,1.7
			c0,63.9,45.5,117.2,105.8,129.3c-11.1,3-22.7,4.6-34.8,4.6c-8.5,0-16.8-0.8-24.8-2.4c16.8,52.4,65.5,90.6,123.2,91.6
			c-45.2,35.4-102,56.5-163.8,56.5c-10.6,0-21.1-0.6-31.5-1.8C256.3,1211.8,325.6,1233.7,400.1,1233.7"/>
	</g>
</g>
<g id="Layer_2">
	<path class="st1" d="M65.8,130.4c0,0,92.9-36.7,149.1-22c56.2,14.7-22,21.7-50.1,48.8c-28.1,27-69.7,22.1-81.9,46.6
		c-12.2,24.4-53.8,44-59.9,63.6c-6.1,19.6-17.6,39.7-47.6,36.9C-54.6,301.5-54,179.3,65.8,130.4z"/>
</g>
<g id="Layer_3">
	<polyline class="st2" points="135.3,213.7 167.3,183 120.8,181.1 	"/>
	<line class="st2" x1="104.1" y1="148.5" x2="167.2" y2="155.9"/>
</g>
</svg>
