<?xml version="1.0" encoding="utf-8"?>
<!-- Generator: Adobe Illustrator 16.0.4, SVG Export Plug-In . SVG Version: 6.00 Build 0)  -->
<!DOCTYPE svg PUBLIC "-//W3C//DTD SVG 1.1//EN" "http://www.w3.org/Graphics/SVG/1.1/DTD/svg11.dtd">
<svg version="1.1" xmlns="http://www.w3.org/2000/svg" xmlns:xlink="http://www.w3.org/1999/xlink" x="0px" y="0px" width="300px"
	 height="244.188px" viewBox="0 0 300 244.188" enable-background="new 0 0 300 244.188" xml:space="preserve">
<g id="svg3626" xmlns:dc="http://purl.org/dc/elements/1.1/" xmlns:cc="http://creativecommons.org/ns#" xmlns:rdf="http://www.w3.org/1999/02/22-rdf-syntax-ns#" xmlns:svg="http://www.w3.org/2000/svg">
	<g id="layer1" transform="translate(-539.17946,-568.85777)">
		<path id="path3611" fill="#EF8C20" d="M637.075,812.045c104.274,0,161.292-86.385,161.292-161.292c0-2.454-0.05-4.897-0.16-7.328
			c11.068-8.002,20.689-17.988,28.278-29.355c-10.158,4.515-21.089,7.554-32.556,8.925c11.705-7.018,20.689-18.121,24.929-31.355
			c-10.952,6.493-23.083,11.213-35.997,13.759c-10.345-11.018-25.072-17.91-41.38-17.91c-31.306,0-56.693,25.387-56.693,56.682
			c0,4.448,0.497,8.774,1.47,12.926c-47.116-2.371-88.894-24.929-116.851-59.229c-4.869,8.377-7.676,18.109-7.676,28.492
			c0,19.668,10.008,37.031,25.227,47.188c-9.3-0.288-18.037-2.84-25.675-7.09c-0.008,0.238-0.008,0.47-0.008,0.724
			c0,27.454,19.54,50.377,45.48,55.571c-4.764,1.299-9.775,1.995-14.948,1.995c-3.647,0-7.2-0.359-10.654-1.022
			c7.217,22.525,28.145,38.915,52.958,39.373c-19.403,15.208-43.845,24.266-70.41,24.266c-4.57,0-9.084-0.26-13.522-0.783
			c25.089,16.08,54.88,25.464,86.899,25.464"/>
	</g>
</g>
<g id="Layer_2">
	<path fill="#EFE920" d="M185.929,13.527c0,0,39.924-15.759,64.089-9.456c24.164,6.304-9.439,9.342-21.53,20.956
		c-12.09,11.614-29.95,9.513-35.204,20.019c-5.253,10.506-23.113,18.912-25.74,27.316c-2.626,8.405-7.557,17.043-20.464,15.877
		C134.172,87.073,134.448,34.54,185.929,13.527z"/>
</g>
<g id="Layer_3">
	<polyline fill="none" stroke="#020202" stroke-width="3" stroke-miterlimit="10" points="215.793,49.334 229.562,36.152 
		209.564,35.325 	"/>
	<line fill="none" stroke="#020202" stroke-width="3" stroke-miterlimit="10" x1="202.39" y1="21.334" x2="229.516" y2="24.482"/>
</g>
</svg>
